<svg xmlns="http://www.w3.org/2000/svg" viewBox="0 0 40 40">
  <circle cx="20" cy="20" r="19" fill="#fbf8f7" />
  <g transform="rotate(0 20 20)">
    <path d="M20,20 C14,17.5 13,10 20,6 C27,10 26,17.5 20,20 Z" fill="#d85c77" opacity="0.9" />
  </g>
  <g transform="rotate(90 20 20)">
    <path d="M20,20 C14,17.5 13,10 20,6 C27,10 26,17.5 20,20 Z" fill="#f6c9a0" opacity="0.9" />
  </g>
  <g transform="rotate(180 20 20)">
    <path d="M20,20 C14,17.5 13,10 20,6 C27,10 26,17.5 20,20 Z" fill="#d9c7ec" opacity="0.9" />
  </g>
  <g transform="rotate(270 20 20)">
    <path d="M20,20 C14,17.5 13,10 20,6 C27,10 26,17.5 20,20 Z" fill="#f1a7a0" opacity="0.9" />
  </g>
  <circle cx="20" cy="20" r="3.5" fill="#c14764" />
</svg>
